PathFileType	4	(X/Y/Z)	E:\3-PhD\Data\MocapData\ElaboratedData\012\pre\dynamicElaborations\RunL1\RunL1.trc
DataRate	CameraRate	NumFrames	NumMarkers	Units	OrigDataRate	OrigDataStartFrame	OrigNumFrames
200	200	4	56	mm	200	730	123
Frame#	Time	FHD			LBHD			RBHD			C7			T10			CLAV			LSHO			LUUPA			LMUPA			LDUPA			LLEP			LMEP			LRAD			LUL			LRFIN			RSHO			RUPA1			RMUPA			RDUPA			RLEP			RMEP			RRAD			RUL			RUFIN			LASI			RASI			USACR			LSACR			RSACR			LTHI1			LTHI2			LTHI3			LTHI4			LLFC			LTIB1			LTIB2			LTIB3			LTIB4			LHEE			LMT1			LMT5			LMT2			RTHI			RTHI2			RTHI3			RTHI4			RLFC			RTIB1			RTIB2			RTIB3			RTIB4			RLMAL			RHEE			RMT1			RMT2			RMT5		
		X1	Y1	Z1	X2	Y2	Z2	X3	Y3	Z3	X4	Y4	Z4	X5	Y5	Z5	X6	Y6	Z6	X7	Y7	Z7	X8	Y8	Z8	X9	Y9	Z9	X10	Y10	Z10	X11	Y11	Z11	X12	Y12	Z12	X13	Y13	Z13	X14	Y14	Z14	X15	Y15	Z15	X16	Y16	Z16	X17	Y17	Z17	X18	Y18	Z18	X19	Y19	Z19	X20	Y20	Z20	X21	Y21	Z21	X22	Y22	Z22	X23	Y23	Z23	X24	Y24	Z24	X25	Y25	Z25	X26	Y26	Z26	X27	Y27	Z27	X28	Y28	Z28	X29	Y29	Z29	X30	Y30	Z30	X31	Y31	Z31	X32	Y32	Z32	X33	Y33	Z33	X34	Y34	Z34	X35	Y35	Z35	X36	Y36	Z36	X37	Y37	Z37	X38	Y38	Z38	X39	Y39	Z39	X40	Y40	Z40	X41	Y41	Z41	X42	Y42	Z42	X43	Y43	Z43	X44	Y44	Z44	X45	Y45	Z45	X46	Y46	Z46	X47	Y47	Z47	X48	Y48	Z48	X49	Y49	Z49	X50	Y50	Z50	X51	Y51	Z51	X52	Y52	Z52	X53	Y53	Z53	X54	Y54	Z54	X55	Y55	Z55	X56	Y56	Z56	
730	3.645000	-338.239816	1757.190410	403.976673	-483.216462	1779.832670	288.923796	-485.345659	1768.607521	441.088985	-575.100361	1589.675104	356.874529	-679.612736	1251.314204	359.125123	-450.013465	1478.576269	368.278974	-467.227852	1587.506839	210.207012	-545.226291	1408.794418	77.029029	-513.800509	1371.079438	82.187881	-562.864439	1343.816780	57.756680	-556.730767	1255.682571	46.560239	-607.634985	1242.352496	125.897098	-370.971034	1217.870339	241.324004	-359.638115	1149.260813	203.247157	-291.071411	1206.118306	273.172473	-512.112937	1537.944230	543.577233	-728.272602	1431.654497	581.720946	-717.286345	1386.252678	600.387728	-774.650160	1381.052599	589.031428	-815.585201	1321.771334	596.690358	-822.160702	1306.602838	514.069609	-610.041196	1139.545723	577.701882	-656.885828	1083.639270	606.340287	-550.808081	1070.657847	578.804309	-564.937378	1015.758133	213.945902	-558.062613	998.188104	447.625858	-722.711484	1122.941427	356.070577	-738.771454	1097.903258	326.566898	-736.984960	1091.197570	382.807270	-677.980431	765.576455	142.240553	-636.695432	689.454164	141.566606	-589.427022	690.895730	150.776524	-663.047498	636.614919	149.716866	-673.845130	476.634230	162.363814	-741.829476	310.273743	242.993721	-790.727611	286.139399	176.129652	-767.612994	267.088134	211.841487	-822.617106	212.873947	247.267762	-1010.994127	102.816008	273.370074	-806.319987	52.148707	285.942038	-841.083114	42.114418	185.264398	-800.198511	50.430695	230.365543	-539.761679	719.026279	488.687962	-477.722747	690.240766	482.745941	-449.618948	704.433594	470.104248	-465.914302	608.136809	470.868036	-444.026970	504.814575	440.990526	-521.357893	403.177372	392.146159	-618.845888	424.765944	435.400757	-604.167617	385.683580	416.560855	-642.854032	357.444331	384.602351	-820.488050	333.890717	388.608833	-887.612725	352.821357	340.332905	-761.035757	169.373531	321.597394	-751.718888	175.229074	364.807404	-792.524184	194.391129	418.052522	
731	3.650000	-314.841009	1760.324012	405.398665	-459.941106	1783.098078	290.570872	-461.771680	1772.390344	442.791708	-551.969914	1592.685487	357.361581	-655.911780	1253.780947	356.059343	-426.426114	1482.581498	370.819372	-441.921545	1591.626393	212.759168	-515.707684	1412.666068	77.706368	-484.674934	1374.957508	84.236985	-532.933478	1347.524361	58.373944	-526.835515	1259.565261	47.785286	-578.427021	1246.026944	126.996396	-345.764023	1225.699913	247.289607	-332.755531	1156.945015	210.007622	-266.507289	1215.448924	280.985534	-491.786534	1541.712586	545.026961	-708.935895	1437.222007	579.575624	-698.672693	1392.219590	599.100358	-755.714761	1387.076022	587.025433	-796.899328	1327.556493	594.782754	-802.577444	1312.198117	511.778065	-589.653541	1147.261294	579.158931	-636.625462	1090.650302	605.773463	-529.585014	1078.716785	580.577531	-538.666824	1016.494296	214.597947	-532.890413	1001.830862	448.219567	-697.264163	1125.231301	354.700750	-713.066055	1099.953568	325.339268	-711.673081	1093.698263	381.565399	-656.381252	767.233985	142.471576	-617.036708	690.146249	141.746255	-569.704539	690.654375	151.653299	-644.716740	637.900664	149.591030	-660.564893	478.699758	161.827962	-731.684721	313.237878	242.019571	-781.793924	290.899470	175.411347	-758.684018	270.954142	210.757573	-814.521388	217.569498	246.320883	-1005.363988	113.527394	273.001038	-805.225369	51.678443	285.984793	-839.803594	43.307477	185.373552	-798.964666	50.108903	230.357306	-510.560466	724.980493	488.635950	-447.815240	697.722230	482.744061	-420.032054	712.850700	470.438756	-433.915286	615.964906	470.618618	-409.900568	512.545910	441.056667	-481.657403	405.968757	392.746844	-580.592686	422.175320	435.094837	-563.461928	383.848065	416.749982	-600.238087	353.266866	384.784552	-776.372222	318.796286	388.048646	-844.211052	333.438196	339.632782	-706.256200	158.323229	321.968132	-697.736498	164.565494	365.247706	-740.116344	181.230740	418.165236	
732	3.655000	-291.381220	1763.446112	406.893268	-436.630365	1786.421011	292.332135	-438.121265	1776.163390	444.603514	-528.817455	1595.753209	357.940750	-632.041687	1256.321229	353.092774	-402.838477	1486.636898	373.305223	-416.689477	1595.807607	215.327200	-486.341672	1416.742794	78.474461	-455.764084	1378.999412	86.322676	-503.215546	1351.453545	59.048030	-497.259939	1263.706345	48.979465	-549.505710	1249.856966	127.877460	-320.870051	1233.498676	252.947379	-306.328831	1164.649684	216.482183	-242.338122	1224.681692	288.395061	-471.248384	1545.400161	546.373172	-689.184753	1442.655402	577.534508	-679.684489	1398.058940	597.755587	-736.386481	1392.983267	585.075239	-777.890671	1333.244769	592.899676	-782.742158	1317.729685	509.404591	-569.082519	1154.760317	580.590717	-616.130428	1097.444148	605.181412	-508.196319	1086.555922	582.359591	-512.335596	1017.440897	215.317305	-507.569046	1005.616607	448.749080	-671.757990	1127.567574	353.453730	-687.300412	1101.987659	324.255805	-686.265753	1096.259130	380.502480	-634.381814	769.055762	142.625248	-596.899668	691.109923	141.833557	-549.581562	690.737746	152.511848	-625.839770	639.432660	149.285230	-646.531648	481.164853	161.104796	-720.765603	316.554301	240.742476	-772.161722	296.092176	174.476258	-749.044933	275.242658	209.355040	-805.486386	222.544979	245.074526	-998.585096	124.892334	272.613664	-803.918921	51.277886	286.005363	-838.255412	44.680514	185.385847	-797.564636	49.790191	230.269190	-481.648603	730.805631	488.726173	-418.322281	704.923920	482.816270	-390.861382	720.927004	470.837210	-402.574802	623.524039	470.375125	-376.712594	520.047800	441.126307	-442.461165	408.740292	393.428536	-542.604464	419.379309	434.731673	-522.998169	381.961554	416.950953	-557.625980	349.092745	384.961115	-731.581698	303.595845	387.395812	-799.834223	313.803689	338.785192	-650.841337	147.891611	322.450467	-643.221806	154.462356	365.779981	-687.080070	168.496444	418.333634	
733	3.660000	-267.871742	1766.523369	408.456352	-413.286703	1789.766160	294.198942	-414.404518	1779.883476	446.513186	-505.634850	1598.847240	358.602966	-607.979802	1258.913025	350.249246	-379.252863	1490.703263	375.723972	-391.529545	1600.018600	217.908008	-457.159278	1420.988046	79.343742	-427.080916	1383.172407	88.427335	-473.734676	1355.570816	59.780519	-468.010831	1268.076127	50.118835	-520.853976	1253.823295	128.546039	-296.265107	1241.215431	258.294398	-280.318753	1172.323800	222.655417	-218.536088	1233.751528	295.422032	-450.485450	1548.968342	547.624702	-669.029029	1447.910889	575.626039	-660.310688	1403.711945	596.409333	-716.667511	1398.711751	583.189534	-758.554143	1338.794985	591.037479	-762.638125	1323.149382	506.943546	-548.322752	1161.977341	581.996638	-595.396587	1103.967241	604.580554	-486.642105	1094.119208	584.144009	-485.953762	1018.572159	216.088742	-482.113581	1009.541489	449.231313	-646.208400	1129.916008	352.332787	-661.487835	1103.970908	323.320278	-660.784095	1098.847768	379.621951	-612.016357	771.003444	142.703843	-576.316308	692.295682	141.848876	-529.093390	691.092254	153.347502	-606.452650	641.162050	148.822597	-631.768219	483.913100	160.236520	-709.105401	320.143754	239.192737	-761.840133	301.623152	173.349684	-738.715719	279.877553	207.660580	-795.541018	227.712335	243.516853	-990.614077	136.747903	272.187933	-802.367812	51.018223	285.981912	-836.424877	46.257224	185.283268	-795.991183	49.525761	230.088599	-453.012864	736.441049	488.946472	-389.222815	711.770735	482.955556	-362.077116	728.574907	471.287747	-371.885513	630.722118	470.134345	-344.444786	527.209894	441.212430	-403.777584	411.430057	394.187864	-504.851095	416.335241	434.327456	-482.768311	379.984343	417.181963	-515.022696	344.910751	385.151213	-686.091423	288.363387	386.690401	-754.436007	294.032884	337.821850	-594.845519	138.154606	323.064605	-588.221956	144.991825	366.426409	-633.444066	156.266262	418.577732	
